<svg width="150" height="150" viewBox="0 0 150 150" fill="none" xmlns="http://www.w3.org/2000/svg">
<path d="M119.986 80.2863C117.227 80.2863 114.987 78.0466 114.987 75.2869V56.3295C114.987 51.7368 111.248 47.9973 106.655 47.9973H70.7535C69.2337 47.9973 67.8005 47.3041 66.854 46.1242L62.8346 41.1116C61.2481 39.1318 58.8752 37.9986 56.3355 37.9986H43.3307C38.738 37.9986 34.9986 41.7381 34.9986 46.3309V72.9939C34.9986 75.7535 32.7589 77.9932 29.9993 77.9932C27.2397 77.9932 25 75.7535 25 72.9939V46.3309C25 36.2256 33.2188 28 43.3307 28H56.3355C61.9214 28 67.134 30.4997 70.6335 34.8591L73.1531 37.9986H106.655C116.767 37.9986 124.986 46.2242 124.986 56.3295V75.2869C124.986 78.0466 122.746 80.2863 119.986 80.2863Z" fill="#6E6A86"/>
<path d="M106.655 54.6622H43.3307C33.2069 54.6622 25 62.8692 25 72.9931V102.989C25 113.113 33.2069 121.32 43.3307 121.32H106.655C116.779 121.32 124.986 113.113 124.986 102.989V72.9931C124.986 62.8692 116.779 54.6622 106.655 54.6622Z" fill="#6E6A86"/>
</svg>
