<svg width="150" height="150" viewBox="0 0 150 150" fill="none" xmlns="http://www.w3.org/2000/svg">
<path d="M119.978 71.3274C117.219 71.3274 114.979 69.0877 114.979 66.3281V56.3294C114.979 51.7367 111.24 47.9973 106.647 47.9973H70.7454C69.2256 47.9973 67.7925 47.304 66.846 46.1242L62.8265 41.1115C61.2401 39.1318 58.8671 37.9986 56.3275 37.9986H43.3227C38.73 37.9986 34.9905 41.7381 34.9905 46.3308V66.3281C34.9905 69.0877 32.7508 71.3274 29.9912 71.3274C27.2316 71.3274 24.9919 69.0877 24.9919 66.3281V46.3308C24.9919 36.2189 33.2108 28 43.3227 28H56.3275C61.9133 28 67.1259 30.4997 70.6254 34.8591L73.1451 37.9986H106.647C116.759 37.9986 124.978 46.2175 124.978 56.3294V66.3281C124.978 69.0877 122.738 71.3274 119.978 71.3274Z" fill="#908CAA"/>
<path d="M128.857 67.1875C125.99 63.4613 121.658 61.3283 116.958 61.3283H33.0104C28.3111 61.3283 23.9784 63.4613 21.1121 67.1875C18.2525 70.9137 17.306 75.653 18.5125 80.1924L25.8514 107.709C27.9844 115.721 35.2701 121.32 43.5622 121.32H106.4C114.692 121.32 121.978 115.728 124.111 107.709L131.45 80.1924C132.663 75.653 131.716 70.9137 128.85 67.1875H128.857Z" fill="#908CAA"/>
</svg>
